<svg xmlns="http://www.w3.org/2000/svg" xmlns:xlink="http://www.w3.org/1999/xlink" width="500" zoomAndPan="magnify" viewBox="0 0 375 374.999991" height="500" preserveAspectRatio="xMidYMid meet" version="1.0"><defs><linearGradient x1="0" gradientTransform="matrix(0.75, 0, 0, 0.75, 0.0000045, 0)" y1="250" x2="499.999979" gradientUnits="userSpaceOnUse" y2="250" id="0912f61f4e"><stop stop-opacity="1" stop-color="rgb(100%, 39.99939%, 76.899719%)" offset="0"/><stop stop-opacity="1" stop-color="rgb(100%, 40.182495%, 76.734924%)" offset="0.0078125"/><stop stop-opacity="1" stop-color="rgb(100%, 40.550232%, 76.40686%)" offset="0.015625"/><stop stop-opacity="1" stop-color="rgb(100%, 40.917969%, 76.078796%)" offset="0.0234375"/><stop stop-opacity="1" stop-color="rgb(100%, 41.287231%, 75.750732%)" offset="0.03125"/><stop stop-opacity="1" stop-color="rgb(100%, 41.654968%, 75.422668%)" offset="0.0390625"/><stop stop-opacity="1" stop-color="rgb(100%, 42.022705%, 75.093079%)" offset="0.046875"/><stop stop-opacity="1" stop-color="rgb(100%, 42.390442%, 74.765015%)" offset="0.0546875"/><stop stop-opacity="1" stop-color="rgb(100%, 42.758179%, 74.436951%)" offset="0.0625"/><stop stop-opacity="1" stop-color="rgb(100%, 43.125916%, 74.108887%)" offset="0.0703125"/><stop stop-opacity="1" stop-color="rgb(100%, 43.493652%, 73.780823%)" offset="0.078125"/><stop stop-opacity="1" stop-color="rgb(100%, 43.862915%, 73.452759%)" offset="0.0859375"/><stop stop-opacity="1" stop-color="rgb(100%, 44.230652%, 73.124695%)" offset="0.09375"/><stop stop-opacity="1" stop-color="rgb(100%, 44.598389%, 72.796631%)" offset="0.101562"/><stop stop-opacity="1" stop-color="rgb(100%, 44.966125%, 72.468567%)" offset="0.109375"/><stop stop-opacity="1" stop-color="rgb(100%, 45.333862%, 72.140503%)" offset="0.117188"/><stop stop-opacity="1" stop-color="rgb(100%, 45.701599%, 71.812439%)" offset="0.125"/><stop stop-opacity="1" stop-color="rgb(100%, 46.069336%, 71.484375%)" offset="0.132812"/><stop stop-opacity="1" stop-color="rgb(100%, 46.438599%, 71.156311%)" offset="0.140625"/><stop stop-opacity="1" stop-color="rgb(100%, 46.806335%, 70.828247%)" offset="0.148437"/><stop stop-opacity="1" stop-color="rgb(100%, 47.174072%, 70.500183%)" offset="0.15625"/><stop stop-opacity="1" stop-color="rgb(100%, 47.541809%, 70.172119%)" offset="0.164062"/><stop stop-opacity="1" stop-color="rgb(100%, 47.909546%, 69.844055%)" offset="0.171875"/><stop stop-opacity="1" stop-color="rgb(100%, 48.277283%, 69.515991%)" offset="0.179687"/><stop stop-opacity="1" stop-color="rgb(100%, 48.646545%, 69.187927%)" offset="0.1875"/><stop stop-opacity="1" stop-color="rgb(100%, 49.014282%, 68.859863%)" offset="0.195312"/><stop stop-opacity="1" stop-color="rgb(100%, 49.382019%, 68.531799%)" offset="0.203125"/><stop stop-opacity="1" stop-color="rgb(100%, 49.749756%, 68.203735%)" offset="0.210938"/><stop stop-opacity="1" stop-color="rgb(100%, 50.117493%, 67.875671%)" offset="0.21875"/><stop stop-opacity="1" stop-color="rgb(100%, 50.485229%, 67.547607%)" offset="0.226562"/><stop stop-opacity="1" stop-color="rgb(100%, 50.852966%, 67.219543%)" offset="0.234375"/><stop stop-opacity="1" stop-color="rgb(100%, 51.222229%, 66.889954%)" offset="0.242188"/><stop stop-opacity="1" stop-color="rgb(100%, 51.589966%, 66.56189%)" offset="0.25"/><stop stop-opacity="1" stop-color="rgb(100%, 51.957703%, 66.233826%)" offset="0.257812"/><stop stop-opacity="1" stop-color="rgb(100%, 52.325439%, 65.905762%)" offset="0.265625"/><stop stop-opacity="1" stop-color="rgb(100%, 52.693176%, 65.577698%)" offset="0.273437"/><stop stop-opacity="1" stop-color="rgb(100%, 53.060913%, 65.249634%)" offset="0.28125"/><stop stop-opacity="1" stop-color="rgb(100%, 53.430176%, 64.92157%)" offset="0.289062"/><stop stop-opacity="1" stop-color="rgb(100%, 53.797913%, 64.593506%)" offset="0.296875"/><stop stop-opacity="1" stop-color="rgb(100%, 54.165649%, 64.265442%)" offset="0.304687"/><stop stop-opacity="1" stop-color="rgb(100%, 54.533386%, 63.937378%)" offset="0.3125"/><stop stop-opacity="1" stop-color="rgb(100%, 54.901123%, 63.609314%)" offset="0.320312"/><stop stop-opacity="1" stop-color="rgb(100%, 55.26886%, 63.28125%)" offset="0.328125"/><stop stop-opacity="1" stop-color="rgb(100%, 55.636597%, 62.953186%)" offset="0.335937"/><stop stop-opacity="1" stop-color="rgb(100%, 56.005859%, 62.625122%)" offset="0.34375"/><stop stop-opacity="1" stop-color="rgb(100%, 56.373596%, 62.297058%)" offset="0.351562"/><stop stop-opacity="1" stop-color="rgb(100%, 56.741333%, 61.968994%)" offset="0.359375"/><stop stop-opacity="1" stop-color="rgb(100%, 57.10907%, 61.64093%)" offset="0.367187"/><stop stop-opacity="1" stop-color="rgb(100%, 57.476807%, 61.312866%)" offset="0.375"/><stop stop-opacity="1" stop-color="rgb(100%, 57.844543%, 60.984802%)" offset="0.382812"/><stop stop-opacity="1" stop-color="rgb(100%, 58.21228%, 60.656738%)" offset="0.390625"/><stop stop-opacity="1" stop-color="rgb(100%, 58.581543%, 60.328674%)" offset="0.398438"/><stop stop-opacity="1" stop-color="rgb(100%, 58.94928%, 60.00061%)" offset="0.40625"/><stop stop-opacity="1" stop-color="rgb(100%, 59.317017%, 59.672546%)" offset="0.414062"/><stop stop-opacity="1" stop-color="rgb(100%, 59.684753%, 59.344482%)" offset="0.421875"/><stop stop-opacity="1" stop-color="rgb(100%, 60.05249%, 59.016418%)" offset="0.429688"/><stop stop-opacity="1" stop-color="rgb(100%, 60.420227%, 58.686829%)" offset="0.4375"/><stop stop-opacity="1" stop-color="rgb(100%, 60.78949%, 58.358765%)" offset="0.445312"/><stop stop-opacity="1" stop-color="rgb(100%, 61.157227%, 58.030701%)" offset="0.453125"/><stop stop-opacity="1" stop-color="rgb(100%, 61.524963%, 57.702637%)" offset="0.460938"/><stop stop-opacity="1" stop-color="rgb(100%, 61.8927%, 57.374573%)" offset="0.46875"/><stop stop-opacity="1" stop-color="rgb(100%, 62.260437%, 57.046509%)" offset="0.476562"/><stop stop-opacity="1" stop-color="rgb(100%, 62.628174%, 56.718445%)" offset="0.484375"/><stop stop-opacity="1" stop-color="rgb(100%, 62.995911%, 56.390381%)" offset="0.492188"/><stop stop-opacity="1" stop-color="rgb(100%, 63.365173%, 56.062317%)" offset="0.5"/><stop stop-opacity="1" stop-color="rgb(100%, 63.73291%, 55.734253%)" offset="0.507812"/><stop stop-opacity="1" stop-color="rgb(100%, 64.100647%, 55.406189%)" offset="0.515625"/><stop stop-opacity="1" stop-color="rgb(100%, 64.468384%, 55.078125%)" offset="0.523437"/><stop stop-opacity="1" stop-color="rgb(100%, 64.836121%, 54.750061%)" offset="0.53125"/><stop stop-opacity="1" stop-color="rgb(100%, 65.203857%, 54.421997%)" offset="0.539062"/><stop stop-opacity="1" stop-color="rgb(100%, 65.57312%, 54.093933%)" offset="0.546875"/><stop stop-opacity="1" stop-color="rgb(100%, 65.940857%, 53.765869%)" offset="0.554687"/><stop stop-opacity="1" stop-color="rgb(100%, 66.308594%, 53.437805%)" offset="0.5625"/><stop stop-opacity="1" stop-color="rgb(100%, 66.676331%, 53.109741%)" offset="0.570312"/><stop stop-opacity="1" stop-color="rgb(100%, 67.044067%, 52.781677%)" offset="0.578125"/><stop stop-opacity="1" stop-color="rgb(100%, 67.411804%, 52.453613%)" offset="0.585937"/><stop stop-opacity="1" stop-color="rgb(100%, 67.779541%, 52.125549%)" offset="0.59375"/><stop stop-opacity="1" stop-color="rgb(100%, 68.148804%, 51.797485%)" offset="0.601562"/><stop stop-opacity="1" stop-color="rgb(100%, 68.516541%, 51.469421%)" offset="0.609375"/><stop stop-opacity="1" stop-color="rgb(100%, 68.884277%, 51.141357%)" offset="0.617187"/><stop stop-opacity="1" stop-color="rgb(100%, 69.252014%, 50.813293%)" offset="0.625"/><stop stop-opacity="1" stop-color="rgb(100%, 69.619751%, 50.483704%)" offset="0.632812"/><stop stop-opacity="1" stop-color="rgb(100%, 69.987488%, 50.15564%)" offset="0.640625"/><stop stop-opacity="1" stop-color="rgb(100%, 70.35675%, 49.827576%)" offset="0.648437"/><stop stop-opacity="1" stop-color="rgb(100%, 70.724487%, 49.499512%)" offset="0.65625"/><stop stop-opacity="1" stop-color="rgb(100%, 71.092224%, 49.171448%)" offset="0.664062"/><stop stop-opacity="1" stop-color="rgb(100%, 71.459961%, 48.843384%)" offset="0.671875"/><stop stop-opacity="1" stop-color="rgb(100%, 71.827698%, 48.51532%)" offset="0.679687"/><stop stop-opacity="1" stop-color="rgb(100%, 72.195435%, 48.187256%)" offset="0.6875"/><stop stop-opacity="1" stop-color="rgb(100%, 72.563171%, 47.859192%)" offset="0.695312"/><stop stop-opacity="1" stop-color="rgb(100%, 72.932434%, 47.531128%)" offset="0.703125"/><stop stop-opacity="1" stop-color="rgb(100%, 73.300171%, 47.203064%)" offset="0.710937"/><stop stop-opacity="1" stop-color="rgb(100%, 73.667908%, 46.875%)" offset="0.71875"/><stop stop-opacity="1" stop-color="rgb(100%, 74.035645%, 46.546936%)" offset="0.726562"/><stop stop-opacity="1" stop-color="rgb(100%, 74.403381%, 46.218872%)" offset="0.734375"/><stop stop-opacity="1" stop-color="rgb(100%, 74.771118%, 45.890808%)" offset="0.742187"/><stop stop-opacity="1" stop-color="rgb(100%, 75.138855%, 45.562744%)" offset="0.75"/><stop stop-opacity="1" stop-color="rgb(100%, 75.508118%, 45.23468%)" offset="0.757812"/><stop stop-opacity="1" stop-color="rgb(100%, 75.875854%, 44.906616%)" offset="0.765625"/><stop stop-opacity="1" stop-color="rgb(100%, 76.243591%, 44.578552%)" offset="0.773438"/><stop stop-opacity="1" stop-color="rgb(100%, 76.611328%, 44.250488%)" offset="0.78125"/><stop stop-opacity="1" stop-color="rgb(100%, 76.979065%, 43.922424%)" offset="0.789062"/><stop stop-opacity="1" stop-color="rgb(100%, 77.346802%, 43.59436%)" offset="0.796875"/><stop stop-opacity="1" stop-color="rgb(100%, 77.716064%, 43.266296%)" offset="0.804688"/><stop stop-opacity="1" stop-color="rgb(100%, 78.083801%, 42.938232%)" offset="0.8125"/><stop stop-opacity="1" stop-color="rgb(100%, 78.451538%, 42.610168%)" offset="0.820312"/><stop stop-opacity="1" stop-color="rgb(100%, 78.819275%, 42.280579%)" offset="0.828125"/><stop stop-opacity="1" stop-color="rgb(100%, 79.187012%, 41.952515%)" offset="0.835938"/><stop stop-opacity="1" stop-color="rgb(100%, 79.554749%, 41.624451%)" offset="0.84375"/><stop stop-opacity="1" stop-color="rgb(100%, 79.922485%, 41.296387%)" offset="0.851562"/><stop stop-opacity="1" stop-color="rgb(100%, 80.291748%, 40.968323%)" offset="0.859375"/><stop stop-opacity="1" stop-color="rgb(100%, 80.659485%, 40.640259%)" offset="0.867188"/><stop stop-opacity="1" stop-color="rgb(100%, 81.027222%, 40.312195%)" offset="0.875"/><stop stop-opacity="1" stop-color="rgb(100%, 81.394958%, 39.984131%)" offset="0.882812"/><stop stop-opacity="1" stop-color="rgb(100%, 81.762695%, 39.656067%)" offset="0.890625"/><stop stop-opacity="1" stop-color="rgb(100%, 82.130432%, 39.328003%)" offset="0.898438"/><stop stop-opacity="1" stop-color="rgb(100%, 82.499695%, 38.999939%)" offset="0.90625"/><stop stop-opacity="1" stop-color="rgb(100%, 82.867432%, 38.671875%)" offset="0.914062"/><stop stop-opacity="1" stop-color="rgb(100%, 83.235168%, 38.343811%)" offset="0.921875"/><stop stop-opacity="1" stop-color="rgb(100%, 83.602905%, 38.015747%)" offset="0.929688"/><stop stop-opacity="1" stop-color="rgb(100%, 83.970642%, 37.687683%)" offset="0.9375"/><stop stop-opacity="1" stop-color="rgb(100%, 84.338379%, 37.359619%)" offset="0.945312"/><stop stop-opacity="1" stop-color="rgb(100%, 84.706116%, 37.031555%)" offset="0.953125"/><stop stop-opacity="1" stop-color="rgb(100%, 85.075378%, 36.703491%)" offset="0.960938"/><stop stop-opacity="1" stop-color="rgb(100%, 85.443115%, 36.375427%)" offset="0.96875"/><stop stop-opacity="1" stop-color="rgb(100%, 85.810852%, 36.047363%)" offset="0.976562"/><stop stop-opacity="1" stop-color="rgb(100%, 86.178589%, 35.719299%)" offset="0.984375"/><stop stop-opacity="1" stop-color="rgb(100%, 86.546326%, 35.391235%)" offset="0.992188"/><stop stop-opacity="1" stop-color="rgb(100%, 86.914062%, 35.063171%)" offset="1"/></linearGradient><clipPath id="f581e51e07"><path d="M 147 167 L 229 167 L 229 354.617188 L 147 354.617188 Z M 147 167 " clip-rule="nonzero"/></clipPath></defs><rect x="-37.5" fill="url(#0912f61f4e)" width="450" y="-37.499999" height="449.999989"/><path fill="#ffffff" d="M 120.714844 328.472656 C 116.710938 328.472656 114.039062 327.136719 111.367188 324.46875 L 57.945312 271.046875 C 52.601562 265.703125 52.601562 257.691406 57.945312 252.347656 L 111.367188 198.925781 C 116.710938 193.582031 124.722656 193.582031 130.066406 198.925781 C 135.40625 204.269531 135.40625 212.28125 130.066406 217.625 L 85.992188 261.695312 L 130.066406 305.769531 C 135.40625 311.113281 135.40625 319.125 130.066406 324.46875 C 127.394531 327.136719 124.722656 328.472656 120.714844 328.472656 Z M 120.714844 328.472656 " fill-opacity="1" fill-rule="nonzero"/><path fill="#ffffff" d="M 254.269531 328.472656 C 250.265625 328.472656 247.59375 327.136719 244.921875 324.46875 C 239.578125 319.125 239.578125 311.113281 244.921875 305.769531 L 288.996094 261.695312 L 244.921875 217.625 C 239.578125 212.28125 239.578125 204.269531 244.921875 198.925781 C 250.265625 193.582031 258.277344 193.582031 263.621094 198.925781 L 317.042969 252.347656 C 322.382812 257.691406 322.382812 265.703125 317.042969 271.046875 L 263.621094 324.46875 C 260.949219 327.136719 258.277344 328.472656 254.269531 328.472656 Z M 254.269531 328.472656 " fill-opacity="1" fill-rule="nonzero"/><g clip-path="url(#f581e51e07)"><path fill="#ffffff" d="M 160.78125 355.183594 C 159.445312 355.183594 158.109375 355.183594 156.777344 353.851562 C 150.097656 351.179688 146.089844 344.5 148.761719 336.488281 L 202.183594 176.222656 C 204.855469 169.542969 211.53125 165.539062 219.546875 168.207031 C 226.222656 170.878906 230.230469 177.558594 227.558594 185.570312 L 174.136719 345.835938 C 171.464844 351.179688 166.125 355.183594 160.78125 355.183594 Z M 160.78125 355.183594 " fill-opacity="1" fill-rule="nonzero"/></g><path fill="#ffffff" d="M 282.03125 100.773438 C 282.03125 100.773438 275.179688 114.480469 259.761719 105.917969 C 244.34375 97.355469 251.199219 68.230469 251.199219 68.230469 L 242.632812 61.375 C 242.632812 61.375 239.214844 92.210938 218.652344 90.5 C 198.09375 88.789062 192.964844 35.683594 192.964844 35.683594 L 188.277344 35.683594 L 188.277344 35.585938 L 183.132812 35.585938 C 183.132812 35.585938 177.988281 88.691406 157.441406 90.402344 C 136.878906 92.113281 133.460938 61.277344 133.460938 61.277344 L 124.898438 68.132812 C 124.898438 68.132812 131.75 97.257812 116.335938 105.820312 C 100.917969 114.382812 94.0625 100.675781 94.0625 100.675781 L 88.917969 105.820312 C 104.464844 121.367188 113.015625 145.085938 115.535156 152.902344 C 115.960938 154.234375 117.492188 154.855469 118.726562 154.1875 C 146.730469 139.324219 172.289062 137.710938 187.820312 137.710938 C 203.382812 137.710938 227.625 138.410156 257.367188 154.285156 C 258.605469 154.953125 260.136719 154.332031 260.558594 153 C 263.066406 145.183594 271.628906 121.464844 287.175781 105.917969 Z M 282.03125 100.773438 " fill-opacity="1" fill-rule="nonzero"/><path fill="#ffffff" d="M 90.144531 91.742188 C 90.691406 91.871094 91.222656 92.054688 91.734375 92.289062 C 92.246094 92.519531 92.726562 92.800781 93.183594 93.128906 C 93.640625 93.460938 94.058594 93.828125 94.441406 94.242188 C 94.828125 94.652344 95.164062 95.097656 95.460938 95.574219 C 95.757812 96.054688 96.003906 96.554688 96.199219 97.082031 C 96.394531 97.609375 96.539062 98.152344 96.628906 98.707031 C 96.71875 99.261719 96.753906 99.820312 96.734375 100.382812 C 96.714844 100.941406 96.640625 101.496094 96.511719 102.046875 C 96.382812 102.59375 96.199219 103.121094 95.964844 103.632812 C 95.734375 104.144531 95.453125 104.628906 95.125 105.085938 C 94.792969 105.539062 94.425781 105.960938 94.011719 106.34375 C 93.601562 106.726562 93.15625 107.066406 92.679688 107.363281 C 92.199219 107.65625 91.699219 107.902344 91.171875 108.101562 C 90.644531 108.296875 90.101562 108.441406 89.546875 108.53125 C 88.992188 108.621094 88.433594 108.65625 87.871094 108.636719 C 87.3125 108.613281 86.757812 108.539062 86.207031 108.410156 C 85.660156 108.28125 85.132812 108.101562 84.621094 107.867188 C 84.109375 107.632812 83.625 107.351562 83.167969 107.023438 C 82.714844 106.695312 82.292969 106.324219 81.910156 105.914062 C 81.527344 105.5 81.1875 105.058594 80.890625 104.578125 C 80.597656 104.101562 80.351562 103.597656 80.152344 103.070312 C 79.957031 102.542969 79.8125 102.003906 79.722656 101.449219 C 79.632812 100.894531 79.597656 100.335938 79.617188 99.773438 C 79.640625 99.210938 79.714844 98.65625 79.84375 98.109375 C 79.972656 97.5625 80.152344 97.03125 80.386719 96.519531 C 80.621094 96.007812 80.902344 95.527344 81.230469 95.070312 C 81.558594 94.613281 81.929688 94.195312 82.339844 93.8125 C 82.753906 93.425781 83.195312 93.089844 83.675781 92.792969 C 84.152344 92.496094 84.65625 92.25 85.183594 92.054688 C 85.710938 91.859375 86.25 91.714844 86.804688 91.625 C 87.359375 91.535156 87.917969 91.5 88.480469 91.519531 C 89.042969 91.539062 89.597656 91.613281 90.144531 91.742188 Z M 90.144531 91.742188 " fill-opacity="1" fill-rule="nonzero"/><path fill="#ffffff" d="M 288.761719 92.472656 C 289.308594 92.601562 289.839844 92.78125 290.351562 93.015625 C 290.863281 93.25 291.347656 93.53125 291.800781 93.859375 C 292.257812 94.1875 292.679688 94.558594 293.0625 94.96875 C 293.445312 95.382812 293.785156 95.828125 294.078125 96.304688 C 294.375 96.78125 294.621094 97.285156 294.816406 97.8125 C 295.015625 98.339844 295.15625 98.878906 295.25 99.433594 C 295.339844 99.988281 295.375 100.546875 295.351562 101.109375 C 295.332031 101.671875 295.257812 102.226562 295.128906 102.773438 C 295 103.320312 294.820312 103.851562 294.585938 104.363281 C 294.351562 104.875 294.070312 105.359375 293.742188 105.8125 C 293.414062 106.269531 293.042969 106.6875 292.632812 107.074219 C 292.21875 107.457031 291.773438 107.796875 291.296875 108.089844 C 290.820312 108.386719 290.316406 108.632812 289.789062 108.828125 C 289.261719 109.027344 288.722656 109.167969 288.167969 109.257812 C 287.613281 109.347656 287.054688 109.382812 286.492188 109.363281 C 285.929688 109.34375 285.375 109.269531 284.828125 109.140625 C 284.28125 109.011719 283.75 108.828125 283.238281 108.597656 C 282.726562 108.363281 282.242188 108.082031 281.789062 107.753906 C 281.332031 107.425781 280.910156 107.054688 280.527344 106.640625 C 280.144531 106.230469 279.804688 105.785156 279.511719 105.308594 C 279.214844 104.828125 278.96875 104.328125 278.773438 103.800781 C 278.574219 103.273438 278.433594 102.730469 278.34375 102.175781 C 278.253906 101.621094 278.21875 101.0625 278.238281 100.5 C 278.257812 99.941406 278.332031 99.386719 278.460938 98.839844 C 278.589844 98.289062 278.773438 97.761719 279.003906 97.25 C 279.238281 96.738281 279.519531 96.253906 279.847656 95.796875 C 280.175781 95.34375 280.546875 94.921875 280.960938 94.539062 C 281.371094 94.15625 281.816406 93.816406 282.292969 93.523438 C 282.773438 93.226562 283.273438 92.980469 283.800781 92.785156 C 284.328125 92.585938 284.867188 92.445312 285.425781 92.351562 C 285.980469 92.261719 286.539062 92.226562 287.097656 92.25 C 287.660156 92.269531 288.214844 92.34375 288.761719 92.472656 Z M 288.761719 92.472656 " fill-opacity="1" fill-rule="nonzero"/><path fill="#ffffff" d="M 133.882812 55.40625 C 134.28125 55.804688 134.632812 56.234375 134.945312 56.703125 C 135.257812 57.171875 135.523438 57.664062 135.738281 58.183594 C 135.953125 58.703125 136.117188 59.238281 136.226562 59.789062 C 136.335938 60.339844 136.390625 60.898438 136.390625 61.460938 C 136.390625 62.023438 136.335938 62.578125 136.226562 63.132812 C 136.117188 63.683594 135.953125 64.21875 135.738281 64.738281 C 135.523438 65.257812 135.257812 65.75 134.945312 66.21875 C 134.632812 66.6875 134.28125 67.117188 133.882812 67.515625 C 133.484375 67.914062 133.050781 68.269531 132.585938 68.582031 C 132.117188 68.894531 131.625 69.15625 131.105469 69.371094 C 130.585938 69.585938 130.050781 69.75 129.496094 69.859375 C 128.945312 69.96875 128.390625 70.023438 127.828125 70.023438 C 127.265625 70.023438 126.707031 69.96875 126.15625 69.859375 C 125.605469 69.75 125.070312 69.585938 124.550781 69.371094 C 124.03125 69.15625 123.535156 68.894531 123.070312 68.582031 C 122.601562 68.269531 122.167969 67.914062 121.773438 67.515625 C 121.375 67.117188 121.019531 66.6875 120.707031 66.21875 C 120.394531 65.75 120.128906 65.257812 119.914062 64.738281 C 119.699219 64.21875 119.539062 63.683594 119.429688 63.132812 C 119.320312 62.582031 119.261719 62.023438 119.261719 61.460938 C 119.261719 60.898438 119.320312 60.34375 119.429688 59.789062 C 119.539062 59.238281 119.699219 58.703125 119.914062 58.183594 C 120.128906 57.664062 120.394531 57.171875 120.707031 56.703125 C 121.019531 56.234375 121.375 55.804688 121.773438 55.40625 C 122.167969 55.007812 122.601562 54.652344 123.070312 54.339844 C 123.535156 54.027344 124.03125 53.765625 124.550781 53.550781 C 125.070312 53.335938 125.605469 53.171875 126.15625 53.0625 C 126.707031 52.953125 127.265625 52.898438 127.828125 52.898438 C 128.390625 52.898438 128.945312 52.953125 129.496094 53.0625 C 130.046875 53.171875 130.585938 53.335938 131.105469 53.550781 C 131.625 53.765625 132.117188 54.027344 132.585938 54.339844 C 133.050781 54.652344 133.484375 55.007812 133.882812 55.40625 Z M 133.882812 55.40625 " fill-opacity="1" fill-rule="nonzero"/><path fill="#ffffff" d="M 254.070312 55.398438 C 254.46875 55.796875 254.824219 56.226562 255.136719 56.695312 C 255.449219 57.164062 255.714844 57.65625 255.929688 58.175781 C 256.144531 58.695312 256.304688 59.230469 256.414062 59.78125 C 256.527344 60.332031 256.582031 60.890625 256.582031 61.453125 C 256.582031 62.015625 256.527344 62.570312 256.414062 63.125 C 256.304688 63.675781 256.144531 64.210938 255.929688 64.730469 C 255.714844 65.25 255.449219 65.742188 255.136719 66.210938 C 254.824219 66.679688 254.46875 67.109375 254.074219 67.507812 C 253.675781 67.90625 253.242188 68.261719 252.773438 68.574219 C 252.308594 68.886719 251.8125 69.148438 251.292969 69.363281 C 250.773438 69.578125 250.238281 69.742188 249.6875 69.851562 C 249.136719 69.960938 248.578125 70.015625 248.015625 70.015625 C 247.453125 70.015625 246.898438 69.960938 246.347656 69.851562 C 245.796875 69.742188 245.257812 69.578125 244.742188 69.363281 C 244.222656 69.148438 243.726562 68.886719 243.261719 68.574219 C 242.792969 68.261719 242.359375 67.90625 241.960938 67.507812 C 241.566406 67.109375 241.210938 66.679688 240.898438 66.210938 C 240.585938 65.742188 240.320312 65.25 240.105469 64.730469 C 239.890625 64.210938 239.726562 63.675781 239.617188 63.125 C 239.507812 62.574219 239.453125 62.015625 239.453125 61.453125 C 239.453125 60.890625 239.507812 60.335938 239.617188 59.78125 C 239.726562 59.230469 239.890625 58.695312 240.105469 58.175781 C 240.320312 57.65625 240.585938 57.164062 240.898438 56.695312 C 241.210938 56.226562 241.5625 55.796875 241.960938 55.398438 C 242.359375 55 242.792969 54.644531 243.257812 54.332031 C 243.726562 54.019531 244.21875 53.757812 244.738281 53.542969 C 245.257812 53.328125 245.796875 53.164062 246.347656 53.054688 C 246.898438 52.945312 247.453125 52.890625 248.015625 52.890625 C 248.578125 52.890625 249.136719 52.945312 249.6875 53.054688 C 250.238281 53.164062 250.773438 53.328125 251.292969 53.542969 C 251.8125 53.757812 252.308594 54.019531 252.773438 54.332031 C 253.242188 54.644531 253.675781 55 254.070312 55.398438 Z M 254.070312 55.398438 " fill-opacity="1" fill-rule="nonzero"/><path fill="#ffffff" d="M 194.085938 25.84375 C 194.484375 26.242188 194.835938 26.671875 195.148438 27.140625 C 195.460938 27.609375 195.726562 28.101562 195.941406 28.621094 C 196.15625 29.140625 196.320312 29.675781 196.429688 30.226562 C 196.539062 30.78125 196.59375 31.335938 196.59375 31.898438 C 196.59375 32.460938 196.539062 33.019531 196.429688 33.570312 C 196.320312 34.121094 196.15625 34.65625 195.941406 35.175781 C 195.726562 35.695312 195.460938 36.1875 195.148438 36.65625 C 194.839844 37.125 194.484375 37.554688 194.085938 37.953125 C 193.6875 38.351562 193.253906 38.707031 192.789062 39.019531 C 192.320312 39.332031 191.828125 39.59375 191.308594 39.808594 C 190.789062 40.023438 190.253906 40.1875 189.699219 40.296875 C 189.148438 40.40625 188.59375 40.460938 188.03125 40.460938 C 187.46875 40.460938 186.910156 40.40625 186.359375 40.296875 C 185.808594 40.1875 185.273438 40.027344 184.753906 39.808594 C 184.234375 39.59375 183.742188 39.332031 183.273438 39.019531 C 182.804688 38.707031 182.371094 38.351562 181.976562 37.953125 C 181.578125 37.554688 181.222656 37.125 180.910156 36.65625 C 180.597656 36.1875 180.335938 35.695312 180.117188 35.175781 C 179.902344 34.65625 179.742188 34.121094 179.632812 33.570312 C 179.523438 33.019531 179.46875 32.460938 179.46875 31.898438 C 179.46875 31.335938 179.523438 30.78125 179.632812 30.226562 C 179.742188 29.675781 179.902344 29.140625 180.117188 28.621094 C 180.332031 28.101562 180.597656 27.609375 180.910156 27.140625 C 181.222656 26.675781 181.578125 26.242188 181.976562 25.84375 C 182.371094 25.445312 182.804688 25.089844 183.273438 24.777344 C 183.738281 24.464844 184.234375 24.203125 184.753906 23.988281 C 185.273438 23.773438 185.808594 23.609375 186.359375 23.5 C 186.910156 23.390625 187.46875 23.335938 188.03125 23.335938 C 188.59375 23.335938 189.148438 23.390625 189.699219 23.5 C 190.253906 23.609375 190.789062 23.773438 191.308594 23.988281 C 191.828125 24.203125 192.320312 24.464844 192.789062 24.777344 C 193.253906 25.089844 193.6875 25.445312 194.085938 25.84375 Z M 194.085938 25.84375 " fill-opacity="1" fill-rule="nonzero"/></svg>