<svg width="2557" height="660" viewBox="0 0 2557 660" fill="none" xmlns="http://www.w3.org/2000/svg">
<path d="M720.941 426V112.471H784.246V426H720.941ZM1049.62 426H989.528V310.084C989.528 285.561 988.245 269.734 985.678 262.605C983.112 255.334 978.906 249.702 973.06 245.71C967.357 241.718 960.442 239.722 952.315 239.722C941.907 239.722 932.568 242.573 924.298 248.276C916.029 253.979 910.326 261.536 907.189 270.946C904.195 280.356 902.698 297.751 902.698 323.13V426H842.601V198.873H898.42V232.236C918.239 206.572 943.19 193.74 973.274 193.74C986.534 193.74 998.653 196.164 1009.63 201.012C1020.61 205.717 1028.88 211.776 1034.44 219.19C1040.14 226.604 1044.06 235.017 1046.2 244.427C1048.48 253.837 1049.62 267.311 1049.62 284.848V426ZM1088.3 361.198L1148.61 352.002C1151.18 363.693 1156.38 372.604 1164.23 378.735C1172.07 384.724 1183.05 387.718 1197.16 387.718C1212.7 387.718 1224.39 384.866 1232.24 379.163C1237.51 375.171 1240.15 369.824 1240.15 363.123C1240.15 358.561 1238.72 354.782 1235.87 351.788C1232.88 348.937 1226.18 346.299 1215.77 343.875C1167.29 333.182 1136.57 323.415 1123.59 314.575C1105.63 302.313 1096.64 285.275 1096.64 263.461C1096.64 243.785 1104.41 227.246 1119.96 213.844C1135.5 200.441 1159.59 193.74 1192.24 193.74C1223.33 193.74 1246.42 198.802 1261.54 208.925C1276.65 219.048 1287.06 234.019 1292.76 253.837L1236.09 264.316C1233.66 255.477 1229.03 248.704 1222.18 243.999C1215.48 239.294 1205.86 236.941 1193.31 236.941C1177.49 236.941 1166.15 239.151 1159.31 243.571C1154.75 246.708 1152.46 250.771 1152.46 255.762C1152.46 260.039 1154.46 263.675 1158.45 266.669C1163.87 270.661 1182.55 276.293 1214.49 283.564C1246.57 290.836 1268.95 299.747 1281.64 310.298C1294.19 320.991 1300.46 335.891 1300.46 354.996C1300.46 375.812 1291.76 393.706 1274.37 408.677C1256.97 423.647 1231.24 431.133 1197.16 431.133C1166.22 431.133 1141.7 424.859 1123.59 412.312C1105.63 399.766 1093.86 382.728 1088.3 361.198ZM1456.12 198.873V246.779H1415.06V338.314C1415.06 356.85 1415.42 367.686 1416.13 370.822C1416.99 373.816 1418.77 376.312 1421.48 378.308C1424.33 380.304 1427.75 381.302 1431.74 381.302C1437.3 381.302 1445.36 379.377 1455.91 375.527L1461.04 422.15C1447.07 428.139 1431.24 431.133 1413.56 431.133C1402.73 431.133 1392.96 429.351 1384.27 425.786C1375.57 422.079 1369.15 417.374 1365.02 411.671C1361.02 405.825 1358.24 397.983 1356.68 388.146C1355.39 381.159 1354.75 367.044 1354.75 345.8V246.779H1327.16V198.873H1354.75V153.747L1415.06 118.673V198.873H1456.12ZM1541.43 268.166L1486.89 258.328C1493.02 236.371 1503.57 220.117 1518.54 209.566C1533.51 199.016 1555.76 193.74 1585.27 193.74C1612.07 193.74 1632.04 196.948 1645.15 203.364C1658.27 209.638 1667.47 217.693 1672.74 227.531C1678.16 237.227 1680.87 255.12 1680.87 281.212L1680.23 351.36C1680.23 371.321 1681.15 386.078 1683.01 395.631C1685 405.041 1688.64 415.164 1693.91 426H1634.46C1632.89 422.008 1630.97 416.091 1628.68 408.249C1627.69 404.685 1626.97 402.332 1626.55 401.191C1616.28 411.172 1605.3 418.657 1593.61 423.647C1581.92 428.638 1569.44 431.133 1556.18 431.133C1532.8 431.133 1514.34 424.788 1500.79 412.099C1487.39 399.409 1480.69 383.369 1480.69 363.979C1480.69 351.146 1483.75 339.74 1489.88 329.76C1496.02 319.637 1504.57 311.938 1515.55 306.662C1526.67 301.244 1542.64 296.539 1563.45 292.547C1591.54 287.271 1611 282.353 1621.84 277.79V271.802C1621.84 260.253 1618.99 252.055 1613.29 247.207C1607.58 242.217 1596.82 239.722 1580.99 239.722C1570.3 239.722 1561.96 241.86 1555.97 246.138C1549.98 250.272 1545.13 257.615 1541.43 268.166ZM1621.84 316.928C1614.14 319.494 1601.95 322.56 1585.27 326.124C1568.59 329.688 1557.68 333.182 1552.55 336.604C1544.71 342.164 1540.79 349.222 1540.79 357.776C1540.79 366.188 1543.92 373.46 1550.2 379.591C1556.47 385.722 1564.45 388.787 1574.15 388.787C1584.98 388.787 1595.32 385.223 1605.16 378.094C1612.43 372.676 1617.21 366.046 1619.49 358.204C1621.06 353.071 1621.84 343.305 1621.84 328.904V316.928ZM1739.65 426V112.471H1802.96V235.872H1927V112.471H1990.3V426H1927V288.911H1802.96V426H1739.65ZM2203.71 426V391.995C2195.44 404.114 2184.53 413.667 2170.99 420.653C2157.59 427.64 2143.4 431.133 2128.43 431.133C2113.17 431.133 2099.49 427.782 2087.37 421.081C2075.25 414.38 2066.48 404.97 2061.06 392.851C2055.64 380.731 2052.94 363.979 2052.94 342.592V198.873H2113.03V303.24C2113.03 335.178 2114.1 354.782 2116.24 362.054C2118.52 369.183 2122.58 374.886 2128.43 379.163C2134.28 383.298 2141.69 385.365 2150.67 385.365C2160.94 385.365 2170.13 382.585 2178.26 377.024C2186.39 371.321 2191.95 364.335 2194.94 356.065C2197.94 347.653 2199.43 327.193 2199.43 294.686V198.873H2259.53V426H2203.71ZM2318.1 426V112.471H2378.2V225.393C2396.73 204.291 2418.69 193.74 2444.07 193.74C2471.73 193.74 2494.61 203.792 2512.72 223.896C2530.83 243.856 2539.88 272.586 2539.88 310.084C2539.88 348.865 2530.61 378.735 2512.08 399.694C2493.68 420.653 2471.3 431.133 2444.92 431.133C2431.95 431.133 2419.12 427.925 2406.43 421.509C2393.88 414.95 2383.04 405.326 2373.92 392.637V426H2318.1ZM2377.77 307.518C2377.77 331.043 2381.48 348.438 2388.89 359.701C2399.3 375.67 2413.13 383.654 2430.38 383.654C2443.64 383.654 2454.9 378.022 2464.17 366.759C2473.58 355.353 2478.29 337.459 2478.29 313.078C2478.29 287.129 2473.58 268.451 2464.17 257.045C2454.76 245.496 2442.71 239.722 2428.03 239.722C2413.63 239.722 2401.65 245.354 2392.1 256.617C2382.55 267.738 2377.77 284.705 2377.77 307.518Z" fill="white"/>
<path d="M946.045 500.61H964L1001.13 597H983.035L973.99 571.485H935.515L926.47 597H909.055L946.045 500.61ZM940.105 558.66H969.535L955.09 517.215H954.685L940.105 558.66ZM1072.13 597H1057.01V587.28H1056.74C1054.85 590.79 1052.02 593.625 1048.24 595.785C1044.46 597.945 1040.68 598.89 1036.9 598.89C1027.72 598.89 1020.97 596.73 1016.92 592.14C1012.87 587.55 1010.84 580.665 1010.84 571.485V527.205H1026.23V570C1026.23 576.21 1027.31 580.53 1029.74 582.96C1032.04 585.525 1035.28 586.74 1039.6 586.74C1042.84 586.74 1045.54 586.335 1047.7 585.255C1049.86 584.31 1051.61 582.96 1052.96 581.34C1054.31 579.72 1055.26 577.695 1055.8 575.265C1056.34 572.97 1056.74 570.405 1056.74 567.705V527.205H1072.13V597ZM1084.04 527.205H1095.65V506.28H1111.04V527.205H1124.95V538.68H1111.04V575.94C1111.04 577.56 1111.04 579.045 1111.18 580.125C1111.31 581.34 1111.58 582.285 1112.12 583.095C1112.66 583.905 1113.34 584.58 1114.42 584.985C1115.36 585.39 1116.71 585.525 1118.47 585.525C1119.55 585.525 1120.63 585.525 1121.71 585.525C1122.79 585.525 1123.87 585.255 1124.95 584.985V596.865C1123.19 597.135 1121.57 597.27 1119.95 597.405C1118.33 597.675 1116.58 597.675 1114.96 597.675C1110.91 597.675 1107.53 597.405 1105.1 596.595C1102.67 595.785 1100.65 594.705 1099.3 593.22C1097.95 591.735 1097 589.845 1096.46 587.55C1095.92 585.39 1095.65 582.825 1095.65 579.855V538.68H1084.04V527.205ZM1170.71 598.89C1165.04 598.89 1160.05 598.08 1155.73 596.19C1151.41 594.3 1147.63 591.735 1144.66 588.495C1141.69 585.255 1139.39 581.475 1137.77 576.885C1136.15 572.43 1135.48 567.435 1135.48 562.035C1135.48 556.77 1136.15 551.91 1137.77 547.32C1139.39 542.865 1141.69 538.95 1144.66 535.71C1147.63 532.47 1151.41 530.04 1155.73 528.15C1160.05 526.26 1165.04 525.315 1170.71 525.315C1176.25 525.315 1181.24 526.26 1185.56 528.15C1189.88 530.04 1193.66 532.47 1196.63 535.71C1199.6 538.95 1201.9 542.865 1203.52 547.32C1205.14 551.91 1205.95 556.77 1205.95 562.035C1205.95 567.435 1205.14 572.43 1203.52 576.885C1201.9 581.475 1199.6 585.255 1196.63 588.495C1193.66 591.735 1189.88 594.3 1185.56 596.19C1181.24 598.08 1176.25 598.89 1170.71 598.89ZM1170.71 586.74C1174.09 586.74 1177.06 586.065 1179.62 584.58C1182.05 583.23 1184.21 581.34 1185.83 578.91C1187.45 576.615 1188.53 574.05 1189.34 571.08C1190.15 568.11 1190.56 565.14 1190.56 562.035C1190.42 559.065 1190.15 556.095 1189.34 553.125C1188.53 550.155 1187.32 547.59 1185.83 545.295C1184.08 543 1182.05 541.11 1179.62 539.625C1177.06 538.275 1174.09 537.465 1170.71 537.465C1167.2 537.6 1164.23 538.275 1161.8 539.625C1159.24 541.11 1157.21 543 1155.59 545.295C1153.97 547.59 1152.76 550.155 1151.95 553.125C1151.14 556.095 1150.87 559.065 1150.87 562.035C1150.87 565.14 1151.14 568.11 1151.95 571.08C1152.76 574.05 1153.97 576.615 1155.59 578.91C1157.21 581.34 1159.24 583.23 1161.8 584.58C1164.23 586.065 1167.2 586.74 1170.71 586.74ZM1221.44 527.205H1236.02V536.925H1236.43C1237.51 535.305 1238.86 533.685 1240.21 532.2C1241.56 530.85 1243.04 529.635 1244.66 528.555C1246.28 527.61 1248.31 526.8 1250.47 526.26C1252.63 525.72 1255.06 525.315 1257.89 525.315C1262.08 525.315 1265.99 526.26 1269.64 528.15C1273.28 530.04 1275.85 533.01 1277.47 536.925C1280.03 533.415 1283 530.58 1286.51 528.42C1289.89 526.395 1294.21 525.315 1299.34 525.315C1306.63 525.315 1312.43 527.205 1316.48 530.715C1320.53 534.36 1322.69 540.435 1322.69 548.805V597H1307.3V556.23C1307.17 553.53 1307.17 550.965 1307.03 548.67C1306.76 546.375 1306.22 544.35 1305.41 542.73C1304.6 541.11 1303.25 539.76 1301.63 538.815C1299.88 538.005 1297.58 537.465 1294.61 537.465C1289.35 537.465 1285.57 539.085 1283.27 542.325C1280.84 545.565 1279.76 550.155 1279.76 556.095V597H1264.37V552.18C1264.37 547.32 1263.43 543.675 1261.67 541.245C1259.92 538.815 1256.68 537.465 1252.09 537.465C1250.06 537.465 1248.17 537.87 1246.28 538.68C1244.39 539.49 1242.77 540.705 1241.42 542.19C1240.07 543.81 1238.86 545.7 1238.05 547.86C1237.24 550.155 1236.83 552.72 1236.83 555.555V597H1221.44V527.205ZM1400.06 581.475C1400.06 583.365 1400.2 584.715 1400.74 585.525C1401.28 586.335 1402.22 586.74 1403.71 586.74H1405.33C1405.87 586.74 1406.68 586.74 1407.49 586.47V597.135C1406.81 597.405 1406.14 597.54 1405.33 597.81C1404.52 598.08 1403.57 598.215 1402.76 598.35C1401.82 598.62 1400.87 598.755 1400.06 598.755C1399.12 598.89 1398.31 598.89 1397.77 598.89C1394.53 598.89 1391.96 598.35 1389.94 597C1387.78 595.785 1386.43 593.625 1385.89 590.385C1382.78 593.355 1379 595.515 1374.55 596.865C1370.09 598.215 1365.77 598.89 1361.72 598.89C1358.48 598.89 1355.51 598.485 1352.68 597.675C1349.71 596.865 1347.14 595.515 1344.98 593.895C1342.82 592.275 1341.07 590.115 1339.72 587.55C1338.37 584.985 1337.83 582.015 1337.83 578.505C1337.83 574.185 1338.5 570.675 1340.12 567.975C1341.74 565.275 1343.77 563.25 1346.33 561.63C1348.9 560.145 1351.73 559.065 1354.97 558.39C1358.21 557.715 1361.45 557.175 1364.69 556.77C1367.39 556.23 1370.09 555.96 1372.66 555.69C1375.09 555.42 1377.38 555.015 1379.27 554.475C1381.16 553.935 1382.78 553.125 1383.86 552.045C1384.94 550.965 1385.62 549.21 1385.62 546.915C1385.62 545.025 1385.08 543.405 1384.13 542.055C1383.19 540.84 1381.97 539.895 1380.62 539.22C1379.27 538.545 1377.65 538.14 1376.03 537.87C1374.28 537.6 1372.66 537.465 1371.17 537.465C1366.85 537.465 1363.21 538.41 1360.51 540.165C1357.67 542.055 1356.05 544.755 1355.78 548.535H1340.39C1340.66 544.08 1341.74 540.3 1343.63 537.33C1345.52 534.36 1347.82 532.065 1350.79 530.175C1353.76 528.42 1357 527.205 1360.78 526.395C1364.42 525.72 1368.2 525.315 1372.12 525.315C1375.49 525.45 1378.87 525.72 1382.24 526.395C1385.48 527.205 1388.45 528.42 1391.15 529.905C1393.85 531.525 1396.01 533.685 1397.63 536.25C1399.25 538.815 1400.06 541.92 1400.06 545.565V581.475ZM1384.67 562.035C1382.24 563.655 1379.41 564.6 1376.03 564.87C1372.52 565.14 1369.15 565.68 1365.77 566.22C1364.15 566.49 1362.53 566.895 1361.05 567.435C1359.43 567.975 1358.08 568.65 1357 569.46C1355.78 570.27 1354.84 571.485 1354.16 572.835C1353.49 574.185 1353.22 575.94 1353.22 577.83C1353.22 579.585 1353.62 581.07 1354.7 582.15C1355.65 583.365 1356.86 584.31 1358.21 584.985C1359.56 585.66 1361.18 586.065 1362.8 586.335C1364.42 586.605 1366.04 586.74 1367.39 586.74C1369.01 586.74 1370.9 586.605 1372.93 586.065C1374.82 585.66 1376.71 584.85 1378.46 583.77C1380.22 582.69 1381.7 581.34 1382.92 579.72C1384 578.1 1384.67 575.94 1384.67 573.51V562.035ZM1412.3 527.205H1423.91V506.28H1439.3V527.205H1453.21V538.68H1439.3V575.94C1439.3 577.56 1439.3 579.045 1439.44 580.125C1439.57 581.34 1439.84 582.285 1440.38 583.095C1440.92 583.905 1441.6 584.58 1442.68 584.985C1443.62 585.39 1444.97 585.525 1446.73 585.525C1447.81 585.525 1448.89 585.525 1449.97 585.525C1451.05 585.525 1452.13 585.255 1453.21 584.985V596.865C1451.45 597.135 1449.83 597.27 1448.21 597.405C1446.59 597.675 1444.84 597.675 1443.22 597.675C1439.17 597.675 1435.79 597.405 1433.36 596.595C1430.93 595.785 1428.91 594.705 1427.56 593.22C1426.21 591.735 1425.26 589.845 1424.72 587.55C1424.18 585.39 1423.91 582.825 1423.91 579.855V538.68H1412.3V527.205ZM1467.39 500.61H1482.78V515.19H1467.39V500.61ZM1467.39 527.205H1482.78V597H1467.39V527.205ZM1534.24 598.89C1528.57 598.89 1523.57 598.08 1519.25 596.19C1514.93 594.3 1511.15 591.735 1508.18 588.495C1505.21 585.255 1502.92 581.475 1501.3 576.885C1499.68 572.43 1499 567.435 1499 562.035C1499 556.77 1499.68 551.91 1501.3 547.32C1502.92 542.865 1505.21 538.95 1508.18 535.71C1511.15 532.47 1514.93 530.04 1519.25 528.15C1523.57 526.26 1528.57 525.315 1534.24 525.315C1539.77 525.315 1544.77 526.26 1549.09 528.15C1553.41 530.04 1557.19 532.47 1560.16 535.71C1563.13 538.95 1565.42 542.865 1567.04 547.32C1568.66 551.91 1569.47 556.77 1569.47 562.035C1569.47 567.435 1568.66 572.43 1567.04 576.885C1565.42 581.475 1563.13 585.255 1560.16 588.495C1557.19 591.735 1553.41 594.3 1549.09 596.19C1544.77 598.08 1539.77 598.89 1534.24 598.89ZM1534.24 586.74C1537.61 586.74 1540.58 586.065 1543.15 584.58C1545.58 583.23 1547.74 581.34 1549.36 578.91C1550.98 576.615 1552.06 574.05 1552.87 571.08C1553.68 568.11 1554.08 565.14 1554.08 562.035C1553.95 559.065 1553.68 556.095 1552.87 553.125C1552.06 550.155 1550.84 547.59 1549.36 545.295C1547.6 543 1545.58 541.11 1543.15 539.625C1540.58 538.275 1537.61 537.465 1534.24 537.465C1530.73 537.6 1527.76 538.275 1525.33 539.625C1522.76 541.11 1520.74 543 1519.12 545.295C1517.5 547.59 1516.28 550.155 1515.47 553.125C1514.66 556.095 1514.39 559.065 1514.39 562.035C1514.39 565.14 1514.66 568.11 1515.47 571.08C1516.28 574.05 1517.5 576.615 1519.12 578.91C1520.74 581.34 1522.76 583.23 1525.33 584.58C1527.76 586.065 1530.73 586.74 1534.24 586.74ZM1584.97 527.205H1599.55V537.465L1599.82 537.735C1602.11 533.955 1605.22 530.85 1609 528.69C1612.78 526.53 1616.96 525.315 1621.55 525.315C1629.11 525.45 1635.19 527.34 1639.64 531.255C1643.96 535.305 1646.26 541.245 1646.26 549.075V597H1630.87V553.125C1630.6 547.725 1629.52 543.675 1627.36 541.245C1625.2 538.815 1621.82 537.465 1617.23 537.465C1614.53 537.465 1612.24 538.005 1610.21 538.95C1608.05 539.895 1606.3 541.245 1604.95 542.865C1603.46 544.485 1602.38 546.51 1601.57 548.67C1600.76 550.965 1600.36 553.395 1600.36 555.825V597H1584.97V527.205Z" fill="white"/>
<path d="M1705.71 574.59C1706.12 579.18 1707.87 582.285 1710.84 584.04C1713.81 585.93 1717.32 586.74 1721.51 586.74C1722.86 586.74 1724.48 586.74 1726.37 586.47C1728.26 586.2 1730.01 585.795 1731.63 585.12C1733.25 584.58 1734.47 583.635 1735.55 582.42C1736.63 581.205 1737.03 579.585 1737.03 577.56C1736.9 575.67 1736.09 574.05 1734.87 572.7C1733.52 571.485 1731.77 570.54 1729.61 569.73C1727.45 568.92 1725.15 568.245 1722.45 567.705C1719.75 567.165 1716.92 566.625 1714.22 565.95C1711.25 565.41 1708.55 564.6 1705.84 563.655C1703.15 562.845 1700.85 561.63 1698.69 560.01C1696.53 558.525 1694.91 556.635 1693.7 554.205C1692.35 551.775 1691.81 548.805 1691.81 545.295C1691.81 541.515 1692.62 538.41 1694.51 535.845C1696.4 533.28 1698.69 531.255 1701.53 529.635C1704.36 528.015 1707.47 526.935 1710.98 526.26C1714.49 525.72 1717.73 525.315 1720.97 525.315C1724.48 525.315 1727.99 525.72 1731.23 526.53C1734.47 527.34 1737.44 528.555 1740.14 530.175C1742.84 531.93 1745 534.225 1746.75 536.925C1748.51 539.625 1749.59 543 1750.13 546.78H1734.06C1733.25 543.135 1731.63 540.705 1728.93 539.355C1726.23 538.14 1723.26 537.465 1719.89 537.465C1718.81 537.465 1717.46 537.6 1715.97 537.735C1714.49 538.005 1713.14 538.275 1711.79 538.815C1710.44 539.355 1709.36 540.03 1708.55 540.975C1707.6 541.92 1707.2 543.135 1707.2 544.62C1707.2 546.51 1707.74 548.13 1709.09 549.21C1710.44 550.425 1712.06 551.37 1714.22 552.18C1716.38 552.99 1718.81 553.665 1721.51 554.07C1724.21 554.745 1726.91 555.285 1729.88 555.825C1732.58 556.5 1735.41 557.31 1738.11 558.12C1740.81 559.065 1743.11 560.28 1745.27 561.765C1747.43 563.385 1749.05 565.275 1750.4 567.57C1751.75 570 1752.42 572.835 1752.42 576.21C1752.42 580.395 1751.48 583.905 1749.59 586.74C1747.7 589.71 1745.13 592.005 1742.16 593.76C1739.19 595.65 1735.82 596.865 1732.17 597.675C1728.39 598.485 1724.75 598.89 1721.24 598.89C1716.78 598.89 1712.73 598.485 1708.95 597.405C1705.17 596.46 1701.93 594.975 1699.23 592.95C1696.53 590.925 1694.37 588.36 1692.75 585.39C1691.13 582.42 1690.32 578.775 1690.32 574.59H1705.71ZM1766.8 500.61H1782.19V515.19H1766.8V500.61ZM1766.8 527.205H1782.19V597H1766.8V527.205ZM1801.26 527.205H1815.84V536.925H1816.24C1817.32 535.305 1818.67 533.685 1820.02 532.2C1821.37 530.85 1822.86 529.635 1824.48 528.555C1826.1 527.61 1828.12 526.8 1830.28 526.26C1832.44 525.72 1834.87 525.315 1837.71 525.315C1841.89 525.315 1845.81 526.26 1849.45 528.15C1853.1 530.04 1855.66 533.01 1857.28 536.925C1859.85 533.415 1862.82 530.58 1866.33 528.42C1869.7 526.395 1874.02 525.315 1879.15 525.315C1886.44 525.315 1892.25 527.205 1896.3 530.715C1900.35 534.36 1902.51 540.435 1902.51 548.805V597H1887.12V556.23C1886.98 553.53 1886.98 550.965 1886.85 548.67C1886.58 546.375 1886.04 544.35 1885.23 542.73C1884.42 541.11 1883.07 539.76 1881.45 538.815C1879.69 538.005 1877.4 537.465 1874.43 537.465C1869.16 537.465 1865.38 539.085 1863.09 542.325C1860.66 545.565 1859.58 550.155 1859.58 556.095V597H1844.19V552.18C1844.19 547.32 1843.24 543.675 1841.49 541.245C1839.73 538.815 1836.49 537.465 1831.9 537.465C1829.88 537.465 1827.99 537.87 1826.1 538.68C1824.21 539.49 1822.59 540.705 1821.24 542.19C1819.89 543.81 1818.67 545.7 1817.86 547.86C1817.05 550.155 1816.65 552.72 1816.65 555.555V597H1801.26V527.205ZM1921.42 527.205H1936V536.655H1936.27C1938.43 532.605 1941.4 529.77 1945.32 528.015C1949.1 526.26 1953.28 525.315 1957.87 525.315C1963.27 525.45 1968.13 526.395 1972.18 528.285C1976.23 530.175 1979.74 532.875 1982.44 536.25C1985.14 539.625 1987.17 543.54 1988.52 547.995C1989.87 552.585 1990.54 557.31 1990.54 562.44C1990.54 567.165 1989.87 571.755 1988.65 576.075C1987.44 580.53 1985.55 584.445 1983.12 587.82C1980.69 591.195 1977.58 593.895 1973.8 595.92C1970.02 597.945 1965.57 598.89 1960.44 598.89C1958.14 598.89 1955.85 598.755 1953.69 598.35C1951.39 597.945 1949.23 597.27 1947.21 596.325C1945.05 595.515 1943.16 594.3 1941.4 592.95C1939.65 591.6 1938.16 589.845 1937.08 587.955H1936.81V622.785H1921.42V527.205ZM1975.15 562.17C1975.15 559.065 1974.75 555.96 1973.94 552.99C1973.13 550.02 1971.91 547.455 1970.29 545.16C1968.67 542.865 1966.65 540.975 1964.22 539.625C1961.79 538.275 1958.95 537.465 1955.85 537.465C1949.37 537.465 1944.37 539.76 1941.13 544.215C1937.89 548.805 1936.27 554.745 1936.27 562.17C1936.27 565.68 1936.68 569.055 1937.49 572.025C1938.3 574.995 1939.65 577.56 1941.4 579.72C1943.02 581.88 1945.05 583.635 1947.48 584.85C1949.91 586.2 1952.61 586.74 1955.85 586.74C1959.36 586.74 1962.33 586.065 1964.76 584.58C1967.19 583.23 1969.08 581.34 1970.7 579.045C1972.32 576.75 1973.4 574.185 1974.07 571.215C1974.75 568.245 1975.15 565.275 1975.15 562.17ZM2006.25 500.61H2021.64V597H2006.25V500.61ZM2041.11 500.61H2056.5V515.19H2041.11V500.61ZM2041.11 527.205H2056.5V597H2041.11V527.205ZM2118.49 500.61H2133.88V515.19H2118.49V500.61ZM2068.68 527.205H2080.15V521.4C2080.15 517.08 2080.69 513.435 2081.77 510.735C2082.85 508.035 2084.2 505.875 2086.09 504.39C2087.85 502.905 2089.87 501.96 2092.17 501.42C2094.46 500.88 2096.89 500.61 2099.46 500.61C2104.32 500.61 2107.96 501.015 2110.26 501.555V513.57C2109.18 513.3 2108.1 513.165 2107.02 513.03C2105.94 512.895 2104.59 512.76 2103.1 512.76C2100.94 512.895 2099.19 513.3 2097.7 514.245C2096.22 515.325 2095.54 517.215 2095.54 520.05V527.205H2108.64V538.68H2095.54V597H2080.15V538.68H2068.68V527.205ZM2118.49 527.205H2133.88V597H2118.49V527.205ZM2200.8 555.96C2200.53 553.53 2199.99 551.235 2199.18 548.94C2198.37 546.78 2197.15 544.755 2195.67 543.135C2194.18 541.515 2192.43 540.165 2190.27 539.085C2188.11 538.005 2185.81 537.465 2183.25 537.465C2180.55 537.465 2177.98 538.005 2175.82 538.95C2173.66 539.895 2171.77 541.245 2170.15 542.865C2168.53 544.485 2167.32 546.51 2166.37 548.67C2165.43 550.965 2164.89 553.395 2164.89 555.96H2200.8ZM2164.89 566.085C2164.89 568.785 2165.16 571.485 2165.97 573.915C2166.78 576.48 2167.86 578.64 2169.48 580.53C2170.96 582.42 2172.85 584.04 2175.28 585.12C2177.58 586.2 2180.41 586.74 2183.65 586.74C2188.11 586.74 2191.75 585.795 2194.45 583.905C2197.15 582.015 2199.31 579.045 2200.66 575.13H2215.24C2214.3 578.91 2212.95 582.285 2211.06 585.255C2209.03 588.225 2206.6 590.79 2203.9 592.815C2201.07 594.84 2197.96 596.325 2194.45 597.405C2190.94 598.485 2187.43 598.89 2183.65 598.89C2178.12 598.89 2173.26 598.08 2169.07 596.19C2164.75 594.435 2161.24 591.87 2158.27 588.63C2155.3 585.39 2153.14 581.61 2151.66 577.02C2150.17 572.565 2149.5 567.57 2149.5 562.17C2149.5 557.31 2150.17 552.585 2151.79 548.13C2153.41 543.675 2155.57 539.76 2158.54 536.385C2161.51 533.01 2165.02 530.31 2169.21 528.285C2173.26 526.395 2177.98 525.315 2183.25 525.315C2188.65 525.315 2193.64 526.53 2197.96 528.825C2202.28 531.12 2205.93 534.09 2208.9 537.87C2211.73 541.65 2213.76 546.105 2215.11 550.965C2216.46 555.825 2216.73 560.955 2216.19 566.085H2164.89ZM2295.92 597H2281.34V587.55H2281.07C2278.91 591.6 2275.94 594.57 2272.03 596.325C2267.98 598.08 2263.79 598.89 2259.47 598.89C2253.94 598.89 2249.08 597.945 2245.03 596.055C2240.98 594.165 2237.6 591.465 2234.9 588.09C2232.2 584.85 2230.18 580.935 2228.83 576.345C2227.48 571.755 2226.8 566.895 2226.8 561.63C2226.8 555.42 2227.61 549.885 2229.37 545.295C2230.99 540.705 2233.28 536.925 2236.12 533.955C2238.95 530.985 2242.19 528.825 2245.84 527.475C2249.48 526.125 2253.26 525.315 2257.04 525.315C2259.2 525.315 2261.36 525.585 2263.66 525.99C2265.82 526.395 2267.98 527.07 2270.14 527.88C2272.16 528.825 2274.05 530.04 2275.81 531.39C2277.56 532.74 2279.05 534.36 2280.26 536.25H2280.53V500.61H2295.92V597ZM2242.19 562.845C2242.19 565.815 2242.46 568.785 2243.27 571.62C2244.08 574.59 2245.16 577.155 2246.78 579.315C2248.4 581.61 2250.43 583.365 2252.86 584.715C2255.29 586.065 2258.12 586.74 2261.5 586.74C2264.87 586.74 2267.84 586.065 2270.27 584.58C2272.7 583.23 2274.73 581.34 2276.35 578.91C2277.97 576.615 2279.05 574.05 2279.86 571.08C2280.67 568.11 2281.07 565.14 2281.07 562.035C2281.07 554.34 2279.32 548.265 2275.81 543.945C2272.3 539.625 2267.71 537.465 2261.77 537.465C2258.12 537.465 2255.02 538.275 2252.59 539.76C2250.16 541.245 2248.13 543.135 2246.51 545.565C2244.89 547.995 2243.81 550.695 2243.14 553.665C2242.46 556.635 2242.19 559.74 2242.19 562.845ZM2316.22 578.775H2334.98V597H2316.22V578.775Z" fill="white"/>
<path d="M330 0L44.275 164.945C101.365 66.385 207.9 0 330 0Z" fill="#0E7CFE"/>
<path d="M615.67 164.945L330 0C452.155 0 558.635 66.385 615.67 164.945Z" fill="#0E7CFE"/>
<path d="M330 659.999C207.9 659.999 101.365 593.614 44.275 495.054L330 659.999Z" fill="#0E7CFE"/>
<path d="M44.22 165.054V494.944C16.17 446.379 0 390.114 0 329.999C0 269.884 16.17 213.619 44.22 165.054Z" fill="#0E7CFE"/>
<path d="M615.67 495.054C558.635 593.614 452.155 659.999 330 659.999L615.67 495.054Z" fill="#0E7CFE"/>
<path d="M660 329.999C660 390.114 643.83 446.434 615.78 494.944V165.054C643.83 213.564 660 269.884 660 329.999Z" fill="#0E7CFE"/>
<path d="M615.78 165V494.945L472.89 247.5L615.725 165H615.78Z" fill="#FCFDFE"/>
<path d="M615.725 495L615.67 495.055L330 660L44.2748 495.055L44.2198 495L330 330L615.725 495Z" fill="#FCFDFE"/>
<path d="M187.11 247.5L44.2198 494.945V165L187.11 247.5Z" fill="#FCFDFE"/>
<path d="M330 0L187.11 247.5L44.2198 165L44.2748 164.945L330 0Z" fill="#0DB7FE"/>
<path d="M615.78 494.945V495H615.725L330 330L472.89 247.5L615.78 494.945Z" fill="#0DB7FE"/>
<path d="M472.89 247.5L330 330L187.11 247.5L330 0L472.89 247.5Z" fill="#000D70"/>
<path d="M330 330L44.2198 495V494.945L187.11 247.5L330 330Z" fill="#0DB7FE"/>
<path d="M615.725 165L472.89 247.5L330 0L615.67 164.945L615.725 165Z" fill="#0DB7FE"/>
</svg>
